<svg xmlns="http://www.w3.org/2000/svg" width="156" height="34" fill="none" viewBox="0 0 156 34"><path fill="#003DAD" d="M0 8C0 3.58172 3.58172 0 8 0H148C152.418 0 156 3.58172 156 8V26C156 30.4183 152.418 34 148 34H8C3.58172 34 0 30.4183 0 26V8Z"/><path fill="#fff" d="M34.2881 21H38.1941L38.4011 20.001H35.6381L36.6911 14.61H35.5301L34.2881 21ZM39.1767 21H40.3377L41.5797 14.61H40.4277L39.1767 21ZM41.7473 20.235C41.7473 20.235 42.4583 21.108 43.9703 21.108C45.2933 21.108 46.2563 20.208 46.2563 19.146C46.2563 17.373 43.7543 17.364 43.7543 16.446C43.7543 15.96 44.3033 15.573 44.8883 15.573C45.7073 15.573 46.2383 16.05 46.2383 16.05L46.8683 15.195C46.8683 15.195 46.2563 14.502 44.8973 14.502C43.6823 14.502 42.5843 15.303 42.5843 16.446C42.5843 18.174 45.0863 18.201 45.0863 19.146C45.0863 19.74 44.4923 20.037 43.9883 20.037C43.0253 20.037 42.4583 19.416 42.4583 19.416L41.7473 20.235ZM48.4308 21H49.5828L50.6358 15.609H52.7238L52.9128 14.61H47.5848L47.3958 15.609H49.4748L48.4308 21ZM52.5864 21H56.5554L56.7444 20.001H53.9364L54.2694 18.282H56.4204L56.6184 17.283H54.4674L54.7914 15.609H57.4554L57.6534 14.61H53.8374L52.5864 21ZM57.8445 21H58.9965L59.7165 17.319C59.7885 16.941 59.8425 16.329 59.8425 16.329H59.8605C59.8605 16.329 60.0315 16.941 60.2025 17.319L61.9035 21H63.0015L64.2435 14.61H63.0915L62.3715 18.3C62.2995 18.678 62.2455 19.29 62.2455 19.29H62.2275C62.2275 19.29 62.0655 18.669 61.8945 18.3L60.1845 14.61H59.0865L57.8445 21ZM67.142 18.3C67.142 19.929 68.285 21.108 70.049 21.108C71.975 21.108 73.838 19.335 73.838 17.247C73.838 15.654 72.677 14.502 70.922 14.502C68.978 14.502 67.142 16.248 67.142 18.3ZM68.33 18.237C68.33 16.761 69.608 15.564 70.913 15.564C71.93 15.564 72.641 16.275 72.641 17.319C72.641 18.831 71.336 20.046 70.058 20.046C69.041 20.046 68.33 19.308 68.33 18.237ZM74.4358 21H75.5878L76.3078 17.319C76.3798 16.941 76.4338 16.329 76.4338 16.329H76.4518C76.4518 16.329 76.6228 16.941 76.7938 17.319L78.4948 21H79.5928L80.8348 14.61H79.6828L78.9628 18.3C78.8908 18.678 78.8368 19.29 78.8368 19.29H78.8188C78.8188 19.29 78.6568 18.669 78.4858 18.3L76.7758 14.61H75.6778L74.4358 21Z"/><path fill="#fff" fill-rule="evenodd" d="M90.9199 22.5217H86L88.3462 10.48H92.3989C93.0962 10.48 93.708 10.5479 94.2183 10.7344C95.3232 11.1245 95.9692 12.0234 95.9692 13.2105C95.9692 14.4827 95.187 15.6357 93.9971 16.1785V16.2124C94.9663 16.5686 95.459 17.4846 95.459 18.553C95.459 20.4016 94.3032 21.6907 92.7559 22.2334C92.1782 22.4368 91.5493 22.5217 90.9199 22.5217ZM90.165 12.3626L89.5698 15.3984H91.8721C92.9429 15.3984 93.708 14.5335 93.708 13.4988C93.708 12.8374 93.3169 12.3626 92.4331 12.3626H90.165ZM89.23 17.1624L88.5498 20.6392H91.0732C91.4473 20.6392 91.7871 20.5713 92.0762 20.4187C92.7559 20.0625 93.2148 19.3333 93.2148 18.5022C93.2148 17.7051 92.688 17.1624 91.7529 17.1624H89.23ZM122.691 22.5217H120.532L122.878 10.48H125.037L123.762 17.0217C125.519 16.7214 126.96 15.4822 127.531 13.8445H129.951C129.423 15.5828 128.054 17.0398 126.374 17.9087C126.422 19.5908 127.533 20.6106 128.934 20.8655L128.53 22.9458C126.451 22.5083 124.863 20.7515 124.588 18.5752C124.204 18.6668 123.815 18.728 123.424 18.7564L122.691 22.5217ZM129.828 19.0029C129.828 21.094 131.341 22.7258 134.044 22.7258C135.965 22.7258 137.427 21.5869 137.427 21.5869L136.849 19.938C136.849 19.938 135.557 20.8899 134.163 20.8899C132.769 20.8899 132.021 20.023 132.021 18.918C132.021 18.8159 132.021 18.7139 132.038 18.595H138.005C138.005 18.595 138.311 17.677 138.311 16.929C138.311 15.0081 137.172 13.648 134.843 13.648C131.953 13.648 129.828 16.062 129.828 19.0029ZM132.378 17.116C132.803 16.0449 133.704 15.314 134.809 15.314C135.625 15.314 136.186 15.8411 136.186 16.7419C136.186 16.929 136.152 17.116 136.152 17.116H132.378ZM138.549 22.522H140.708L141.303 19.4448C141.711 17.303 143.241 15.8579 144.533 15.8579C144.839 15.8579 145.043 15.8919 145.043 15.8919L145.468 13.7669C145.468 13.7669 145.23 13.7329 144.958 13.7329C143.632 13.7329 142.442 14.7869 141.864 15.9768H141.847C141.847 15.9768 141.949 15.6709 142.017 15.3479L142.306 13.8518H140.232L138.549 22.522ZM111.898 20.5159C111.898 21.9439 113.123 22.7258 114.465 22.7258C116.301 22.7258 117.288 21.1619 117.288 21.1619H117.321C117.321 21.1619 117.219 21.4339 117.151 21.791L117.016 22.522H119.004L120.042 17.167C120.092 16.8608 120.126 16.572 120.126 16.3169C120.126 14.311 118.528 13.648 116.947 13.648C115.078 13.648 113.514 14.583 113.514 14.583L114.023 16.249C114.023 16.249 115.333 15.4329 116.573 15.4329C117.56 15.4329 117.967 15.875 117.967 16.606C117.967 16.7249 117.951 16.8779 117.917 17.082H117.593C115.298 17.082 111.898 17.7449 111.898 20.5159ZM114.074 20.1419C114.074 18.7139 116.301 18.561 117.288 18.561H117.645L117.61 18.731C117.406 19.7849 116.335 21.043 115.196 21.043C114.432 21.043 114.074 20.635 114.074 20.1419ZM107.304 22.7258C104.602 22.7258 103.088 21.094 103.088 19.0029C103.088 16.062 105.213 13.648 108.104 13.648C110.433 13.648 111.571 15.0081 111.571 16.929C111.571 17.677 111.265 18.595 111.265 18.595H105.298C105.281 18.7139 105.281 18.8159 105.281 18.918C105.281 20.023 106.029 20.8899 107.423 20.8899C108.817 20.8899 110.109 19.938 110.109 19.938L110.688 21.5869C110.688 21.5869 109.226 22.7258 107.304 22.7258ZM108.069 15.314C106.964 15.314 106.064 16.0449 105.638 17.116H109.413C109.413 17.116 109.446 16.929 109.446 16.7419C109.446 15.8411 108.885 15.314 108.069 15.314ZM96.0938 22.522H98.2529L98.8477 19.4448C99.2559 17.303 100.786 15.8579 102.078 15.8579C102.384 15.8579 102.588 15.8919 102.588 15.8919L103.013 13.7669C103.013 13.7669 102.775 13.7329 102.503 13.7329C101.177 13.7329 99.9868 14.7869 99.4087 15.9768H99.3916C99.3916 15.9768 99.4937 15.6709 99.5615 15.3479L99.8506 13.8518H97.7769L96.0938 22.522Z" clip-rule="evenodd"/><rect width="22" height="22" x="7" y="6" fill="url(#paint0_linear)" rx="5"/><path fill="#1269FF" d="M16.4235 20.7963C16.9979 22.5525 17.9196 24.1502 19.1122 25.5066C21.3454 25.2175 23.3092 24.0695 24.6616 22.4048C23.559 22.6958 22.4013 22.8508 21.2073 22.8508C20.2523 22.8508 19.3204 22.7493 18.4215 22.5607C17.4837 22.3703 16.7244 21.6887 16.4235 20.7963Z"/><path fill="#5C9DFF" d="M18 25.5781C18.3769 25.5781 18.7482 25.5538 19.1122 25.5067C17.9196 24.1502 16.9979 22.5526 16.4235 20.7963C16.3332 20.5282 16.2842 20.241 16.2842 19.9423C16.2842 19.272 16.531 18.6593 16.9388 18.1902C15.3782 19.9347 14.2639 22.0874 13.7769 24.4683C15.0236 25.1748 16.4647 25.5781 18 25.5781Z"/><path fill="#9EC6FF" d="M9.65997 19.0155C10.2223 21.351 11.7402 23.3142 13.7769 24.4683C14.2645 22.0842 15.3806 19.929 16.9445 18.1833C17.4342 17.6238 18.1541 17.2705 18.956 17.2705C19.134 17.2705 19.3079 17.2879 19.4761 17.3211C18.5816 17.1344 17.6546 17.0339 16.7047 17.0339C14.1231 17.0339 11.7108 17.7585 9.65997 19.0155Z"/><path fill="#D1E3FF" d="M19.4761 17.3211C18.5816 17.1344 17.6546 17.0338 16.7047 17.0338C14.1231 17.0338 11.7108 17.7585 9.65997 19.0154C9.50433 18.3691 9.42188 17.6942 9.42188 17C9.42188 14.3249 10.6464 11.9358 12.5655 10.3626C16.7719 11.6326 20.1084 14.9065 21.4792 19.0682C21.492 19.1048 21.504 19.1418 21.5152 19.1791C21.5034 19.1421 21.4914 19.1051 21.4792 19.0682C21.1706 18.184 20.411 17.5055 19.4761 17.3211Z"/><path fill="#fff" d="M26.1553 15.4526C26.1553 11.6563 22.9922 8.42187 17.9995 8.42188C15.937 8.42188 14.0444 9.14981 12.5648 10.3628C16.809 11.6448 20.1685 14.9616 21.5147 19.1791C21.5932 19.4259 21.6648 19.6885 21.7293 19.9412C24.1683 19.8873 26.1553 17.9038 26.1553 15.4526Z"/><path fill="#003DAD" fill-rule="evenodd" d="M21.3178 20.0456C21.255 19.7995 21.1551 19.4415 21.079 19.2019C20.8174 18.4582 20.177 17.8894 19.3945 17.7349C19.246 17.7052 19.113 17.6918 18.956 17.6923C18.2807 17.6923 17.6749 17.9893 17.2619 18.4611C16.8983 18.8731 16.6982 19.3558 16.706 19.9423C16.7045 20.2054 16.7422 20.425 16.8233 20.6616C17.0766 21.4131 17.7194 21.9877 18.5081 22.1478C19.3866 22.3327 20.2751 22.4296 21.2073 22.429C22.3732 22.4299 23.477 22.282 24.5539 21.997L24.9014 21.9053L25.0817 22.5568L24.989 22.6709C23.5708 24.4166 21.5105 25.6216 19.1664 25.9251C18.789 25.9737 18.3907 25.9998 18 26C16.4073 25.9961 14.8616 25.5643 13.5689 24.8353C11.4328 23.6248 9.8401 21.5656 9.24982 19.1142C9.08919 18.4442 9.00078 17.7198 9 17C9 14.1932 10.2854 11.6862 12.2981 10.0363C13.833 8.78499 15.8604 8.00709 18 8C23.185 8 26.5777 11.3848 26.5777 15.4525C26.5777 18.1394 24.4004 20.306 21.7356 20.363L21.4006 20.3702L21.3178 20.0456ZM21.8812 18.9403C20.5749 14.8476 17.4646 11.6795 13.4625 10.2171C14.7632 9.33491 16.2977 8.83767 18 8.84375C22.7986 8.84375 25.7339 11.9266 25.7339 15.4525C25.7339 17.5599 24.1084 19.2917 22.0453 19.4995C21.9911 19.3037 21.931 19.097 21.8812 18.9403ZM9.84375 17C9.84375 14.5375 10.9345 12.3302 12.6607 10.8341C15.9433 11.8861 18.6334 14.132 20.2036 17.1113C19.9998 17.0209 19.7843 16.952 19.56 16.9076C18.6459 16.7175 17.6766 16.6126 16.7047 16.612C14.2747 16.6161 11.9458 17.2563 9.95493 18.3562C9.88062 17.916 9.8432 17.4686 9.84375 17ZM17.1069 17.4616C16.9321 17.592 16.7717 17.7403 16.6283 17.9039C15.1634 19.5466 14.0562 21.5888 13.4971 23.8017C11.89 22.7356 10.6829 21.1154 10.148 19.2149C12.0872 18.0837 14.2959 17.4514 16.7047 17.4557C16.8397 17.4556 16.9737 17.4576 17.1069 17.4616ZM18 25.1562C16.6322 25.1599 15.3856 24.839 14.2556 24.249C14.5809 22.8187 15.1348 21.492 15.8839 20.2914C15.9097 20.5127 15.9578 20.7317 16.0225 20.9274C16.5255 22.4592 17.3002 23.8998 18.2727 25.152C18.1827 25.1549 18.092 25.1563 18 25.1562ZM19.2803 25.0564C18.6811 24.3528 18.1614 23.5942 17.7261 22.7819C17.9199 22.8659 18.1241 22.9307 18.3362 22.9739C19.2551 23.1661 20.2299 23.2721 21.2073 23.2727C21.9537 23.2721 22.6962 23.2114 23.4182 23.0966C22.2789 24.11 20.8541 24.8084 19.2803 25.0564Z" clip-rule="evenodd"/><defs><linearGradient id="paint0_linear" x1="18" x2="18" y1="6" y2="28" gradientUnits="userSpaceOnUse"><stop stop-color="#FF40C0"/><stop offset="1" stop-color="#FF7066"/></linearGradient></defs></svg>