<?xml version="1.0" standalone="no"?>
<!DOCTYPE svg PUBLIC "-//W3C//DTD SVG 20010904//EN"
 "http://www.w3.org/TR/2001/REC-SVG-20010904/DTD/svg10.dtd">
<svg version="1.0" xmlns="http://www.w3.org/2000/svg"
 width="700.000000pt" height="700.000000pt" viewBox="0 0 700.000000 700.000000"
 preserveAspectRatio="xMidYMid meet">
<metadata>
Created by potrace 1.14, written by Peter Selinger 2001-2017
</metadata>
<g transform="translate(0.000000,700.000000) scale(0.100000,-0.100000)"
fill="#000000" stroke="none">
<path d="M3269 6886 c-2 -2 -42 -7 -89 -11 -47 -4 -94 -9 -105 -11 -11 -2 -40
-6 -65 -9 -90 -10 -268 -48 -405 -85 -329 -90 -565 -193 -903 -395 -73 -44
-308 -212 -348 -250 -6 -5 -36 -30 -65 -55 -182 -151 -480 -486 -609 -685
-121 -187 -231 -394 -308 -575 -73 -174 -163 -461 -187 -599 -3 -19 -7 -37 -9
-40 -2 -3 -7 -28 -10 -55 -4 -27 -9 -52 -10 -55 -2 -3 -7 -31 -10 -62 -4 -31
-9 -67 -11 -80 -27 -138 -27 -650 0 -839 2 -14 6 -45 10 -70 83 -585 329
-1150 707 -1627 87 -110 116 -142 253 -278 140 -141 196 -190 325 -289 229
-176 497 -334 730 -431 36 -15 79 -33 95 -40 70 -31 328 -114 403 -130 9 -2
55 -12 102 -23 47 -11 105 -23 130 -27 24 -4 47 -8 50 -10 3 -1 30 -6 61 -9
31 -4 65 -8 75 -10 108 -21 564 -29 729 -13 523 49 1011 210 1455 479 95 58
311 207 330 228 3 3 28 23 55 45 167 133 379 350 538 552 154 194 340 511 431
733 15 36 33 79 41 95 7 17 34 91 59 165 63 189 112 393 141 595 4 22 8 50 10
63 13 77 20 235 20 432 0 314 -20 489 -86 770 -87 370 -208 659 -424 1018
-173 288 -470 620 -761 852 -102 82 -327 240 -340 240 -3 0 -18 8 -32 19 -46
32 -272 150 -382 199 -179 79 -476 175 -645 208 -51 10 -143 27 -170 31 -16 2
-41 6 -55 9 -14 2 -52 6 -85 10 -33 3 -71 8 -85 11 -29 6 -545 15 -551 9z
m496 -230 c17 -3 44 -7 60 -10 17 -3 46 -8 65 -11 151 -25 373 -101 541 -185
456 -228 820 -626 1003 -1097 37 -96 90 -274 100 -338 4 -21 8 -40 10 -44 3
-4 7 -35 11 -70 4 -34 9 -72 11 -84 11 -50 10 -340 -2 -447 -22 -202 -82 -434
-155 -598 l-24 -53 -70 93 c-90 120 -294 324 -415 414 -263 197 -531 328 -823
403 -106 27 -135 33 -227 47 -19 3 -46 7 -60 10 -48 8 -226 18 -315 17 -246
-3 -490 -46 -735 -130 -402 -138 -801 -426 -1056 -762 l-69 -92 -24 53 c-25
58 -97 268 -105 308 -2 14 -11 54 -19 90 -29 124 -41 252 -41 425 0 116 11
302 19 315 2 3 6 21 9 40 41 247 135 498 268 718 329 546 931 932 1538 988 41
3 77 8 80 11 5 5 384 -5 425 -11z m-1927 -478 c-347 -364 -567 -839 -621
-1339 -13 -124 -15 -365 -4 -464 20 -173 61 -373 102 -490 41 -119 79 -212
119 -293 l46 -91 -34 -68 c-225 -450 -294 -953 -201 -1468 50 -272 192 -611
358 -855 29 -41 54 -77 57 -80 3 -3 30 -36 61 -75 31 -38 71 -86 90 -105 74
-77 77 -84 20 -48 -204 127 -392 278 -571 458 -310 310 -532 642 -697 1044
-107 260 -168 498 -218 856 -14 102 -14 554 1 680 47 400 151 748 330 1101 68
136 89 171 200 339 152 230 426 526 647 700 113 88 337 243 344 236 2 -2 -11
-19 -29 -38z m3413 -34 c105 -70 243 -174 329 -248 90 -78 314 -312 393 -411
308 -385 522 -834 626 -1310 21 -96 35 -177 45 -265 2 -19 8 -62 12 -95 16
-117 8 -694 -11 -725 -1 -3 -6 -32 -9 -65 -4 -33 -11 -76 -16 -95 -5 -19 -11
-48 -13 -65 -19 -124 -90 -360 -162 -540 -169 -419 -384 -744 -705 -1065 -161
-161 -309 -284 -475 -394 -142 -94 -144 -95 -125 -70 8 10 35 39 58 64 68 70
215 269 277 375 173 293 286 643 312 964 12 152 7 421 -11 516 -2 11 -7 42
-10 68 -8 54 -10 61 -26 132 -33 149 -105 351 -174 493 l-45 92 40 80 c74 150
158 391 186 535 4 22 8 42 8 45 1 3 5 28 10 55 4 28 9 58 11 68 18 100 24 378
11 523 -40 443 -228 900 -514 1247 -37 45 -87 101 -110 125 -24 23 -40 42 -35
42 6 0 61 -34 123 -76z m-1499 -1693 c42 -11 111 -35 153 -55 524 -242 730
-858 458 -1366 -25 -47 -48 -87 -52 -90 -3 -3 -19 -23 -35 -45 -97 -132 -287
-268 -452 -324 -137 -45 -325 -64 -464 -46 -196 26 -401 130 -552 278 -388
381 -388 1008 -1 1393 167 166 384 267 608 281 50 3 91 6 92 7 8 7 181 -17
245 -33z m-1232 -252 c-82 -109 -182 -344 -204 -482 -52 -326 12 -633 186
-888 24 -35 48 -70 52 -78 5 -7 -22 4 -60 25 -261 144 -502 360 -692 619 -27
38 -62 96 -62 105 0 6 19 39 41 73 101 151 269 333 416 450 77 62 226 167 237
167 3 0 31 16 63 35 31 19 59 33 61 31 2 -2 -15 -28 -38 -57z m2026 2 c255
-151 445 -324 651 -596 25 -32 63 -96 63 -105 0 -13 -21 -46 -74 -120 -165
-226 -395 -436 -630 -574 -130 -77 -134 -77 -79 -5 112 148 190 348 218 559
12 87 6 289 -10 350 -2 8 -7 31 -10 50 -23 138 -150 403 -233 487 -26 26 6 12
104 -46z m-2836 -1046 c76 -94 239 -261 327 -333 315 -258 731 -444 1109 -497
22 -3 48 -7 59 -10 29 -6 220 -18 290 -19 105 0 276 14 365 30 14 2 41 7 60
10 116 19 356 89 449 131 322 144 521 277 735 486 101 99 221 237 267 307 16
24 16 23 57 -80 64 -164 111 -337 127 -469 4 -30 9 -63 11 -75 9 -46 12 -316
4 -401 -10 -102 -18 -159 -25 -195 -3 -14 -8 -41 -11 -60 -3 -19 -8 -38 -10
-41 -2 -3 -6 -20 -9 -37 -5 -31 -68 -231 -84 -267 -192 -436 -436 -732 -797
-969 -225 -146 -527 -268 -754 -302 -19 -3 -41 -7 -48 -10 -55 -18 -433 -26
-572 -11 -78 8 -254 41 -305 57 -16 5 -64 21 -105 34 -455 146 -860 466 -1119
883 -113 183 -192 372 -247 593 -33 132 -37 153 -51 295 -13 127 -4 488 12
515 2 3 6 24 9 46 16 105 66 288 100 369 7 17 24 57 36 89 24 59 24 59 39 36
9 -13 45 -60 81 -105z"/>
</g>
</svg>
